<svg id="Layer_1" data-name="Layer 1" xmlns="http://www.w3.org/2000/svg" viewBox="0 0 1794 1025"><defs><style>.cls-1{font-size:200px;font-family:Impact, Impact;}.cls-2{letter-spacing:-0.05em;}.cls-3{letter-spacing:-0.02em;}</style></defs><title>fpmask1</title><text class="cls-1" transform="translate(211 459.75)"><tspan class="cls-2">ALL IN ONE SOLUTION</tspan><tspan x="157.9" y="240">STREAM</tspan><tspan class="cls-3" x="789.25" y="240">P</tspan><tspan x="884.66" y="240">ANEL</tspan></text><rect x="1490" y="538" width="207" height="451"/><rect x="849" y="748" width="595" height="145"/><rect x="466" y="769" width="347" height="192"/><rect x="72" y="764" width="348" height="141"/><rect x="152" y="948" width="99" height="77"/><rect x="122" y="500" width="192" height="211"/><rect x="50" y="38" width="398" height="66"/><rect x="50" y="147" width="398" height="66"/><rect x="473" width="94" height="271"/><rect x="623" y="47" width="366" height="224"/><rect x="1055" y="18" width="336" height="141"/><rect x="1130" y="196" width="30" height="67"/><rect x="1210" y="180" width="69" height="83"/><rect x="1425" y="77" width="103" height="194"/><rect x="1602" width="104" height="208"/><rect x="372" y="711" width="1093" height="9"/><rect x="341" y="516" width="1093" height="9"/><rect x="321" y="501" width="1093" height="9"/><rect x="313" y="733" width="1093" height="9"/><rect x="1547" y="234" width="172" height="54"/><rect x="1743" y="18" width="51" height="766"/><rect x="1229" y="933" width="172" height="54"/><rect x="1000" y="914" width="139" height="46"/><rect x="893" y="979" width="296" height="17"/><rect x="313" y="954" width="96" height="55"/><rect y="318" width="72" height="306"/><rect x="285" y="242" width="124" height="46"/><rect x="95" y="221" width="172" height="35"/></svg>