<?xml version="1.0" encoding="utf-8"?>
<!-- Generator: Adobe Illustrator 22.0.1, SVG Export Plug-In . SVG Version: 6.00 Build 0)  -->
<svg version="1.1" id="Layer_1" xmlns="http://www.w3.org/2000/svg" xmlns:xlink="http://www.w3.org/1999/xlink" x="0px" y="0px"
	 viewBox="0 0 142 107" style="enable-background:new 0 0 142 107;" xml:space="preserve">
<style type="text/css">
	.st0{fill:#1ACA7B;}
	.st1{fill:#502B93;}
	.st2{fill:#2E2E2E;}
	.st3{fill:#FFFFFF;}
</style>
<g>
	<path d="M130,107H12c-6.6,0-12-5.4-12-12V12C0,5.4,5.4,0,12,0h118c6.6,0,12,5.4,12,12v83C142,101.6,136.6,107,130,107z"/>
</g>
<path class="st0" d="M128.6,98H97.4c-1.3,0-2.4-1.1-2.4-2.4V11.4c0-1.3,1.1-2.4,2.4-2.4h31.3c1.3,0,2.4,1.1,2.4,2.4v84.3
	C131,96.9,129.9,98,128.6,98z"/>
<g>
	<path class="st0" d="M24,68H11c-1.1,0-2-0.9-2-2V40c0-1.1,0.9-2,2-2H24c1.1,0,2,0.9,2,2V66C26,67.1,25.1,68,24,68z"/>
</g>
<g>
	<path class="st1" d="M88,68H75c-1.1,0-2-0.9-2-2V40c0-1.1,0.9-2,2-2H88c1.1,0,2,0.9,2,2V66C90,67.1,89.1,68,88,68z"/>
</g>
<g>
	<path class="st2" d="M88.1,98H10.9C9.9,98,9,97.1,9,96.1V76.9c0-1.1,0.9-1.9,1.9-1.9h77.1c1.1,0,1.9,0.9,1.9,1.9v19.1
		C90,97.1,89.1,98,88.1,98z"/>
</g>
<g>
	<path class="st3" d="M87.9,32H11.1C10,32,9,31,9,29.9V11.1C9,10,10,9,11.1,9h76.7C89,9,90,10,90,11.1v18.7C90,31,89,32,87.9,32z"/>
</g>
<g>
	<path class="st3" d="M66,68H33c-1.1,0-2-0.9-2-2V40c0-1.1,0.9-2,2-2H66c1.1,0,2,0.9,2,2V66C68,67.1,67.1,68,66,68z"/>
</g>
</svg>
